 http://www.imdb.com/title/tt1748122/






Format : MPEG-4
Format profile : Base Media / Version 2
Codec ID : mp42
File size : 1.03 GiB
Duration : 1h 33mn
Overall bit rate mode : Variable
Overall bit rate : 1 568 Kbps
Encoded date : UTC 2012-09-20 20:18:32
Tagged date : UTC 2012-09-20 20:57:58
Writing application : HandBrake 0.9.8 2012071800

Video
ID : 1
Format : AVC
Format/Info : Advanced Video Codec
Format profile : Main@L3.1
Format settings, CABAC : Yes
Format settings, ReFrames : 4 frames
Codec ID : avc1
Codec ID/Info : Advanced Video Coding
Duration : 1h 33mn
Bit rate mode : Variable
Bit rate : 1 397 Kbps
Width : 1 280 pixels
Height : 696 pixels
Display aspect ratio : 1.85:1
Frame rate mode : Variable
Frame rate : 24.000 fps
Minimum frame rate : 23.810 fps
Maximum frame rate : 1 000.000 fps
Color space : YUV
Chroma subsampling : 4:2:0
Bit depth : 8 bits
Scan type : Progressive
Bits/(Pixel*Frame) : 0.065
Stream size : 936 MiB (89%)
Writing library : x264 core 120
Encoded date : UTC 2012-09-20 20:18:32
Tagged date : UTC 2012-09-20 20:57:58
Color primaries : BT.709-5, BT.1361, IEC 61966-2-4, SMPTE RP177
Transfer characteristics : BT.709-5, BT.1361
Matrix coefficients : BT.709-5, BT.1361, IEC 61966-2-4 709, SMPTE RP177

Audio
ID : 2
Format : AAC
Format/Info : Advanced Audio Codec
Format profile : LC
Codec ID : 40
Duration : 1h 33mn
Bit rate mode : Variable
Bit rate : 164 Kbps
Maximum bit rate : 272 Kbps
Channel(s) : 2 channels
Channel positions : Front: L R
Sampling rate : 48.0 KHz
Compression mode : Lossy
Stream size : 110 MiB (10%)
Language : English
Encoded date : UTC 2012-09-20 20:18:32
Tagged date : UTC 2012-09-20 20:57:58
Text #1
ID : 3
Format : Timed text
Muxing mode : sbtl
Codec ID : tx3g
Duration : 1h 27mn
Bit rate mode : Variable
Bit rate : 0 bps
Stream size : 101 Bytes (0%)
Language : English
Encoded date : UTC 2012-09-20 20:18:32
Tagged date : UTC 2012-09-20 20:56:58
Text #2
ID : 4
Format : Timed text
Muxing mode : sbtl
Codec ID : tx3g
Duration : 1h 33mn
Bit rate mode : Variable
Bit rate : 318 bps
Stream size : 218 KiB (0%)
Language : English
Encoded date : UTC 2012-09-20 20:18:32
Tagged date : UTC 2012-09-20 20:57:58










If you have any requests please leave them at my Suprbay forum, from now on i 

will disregard any requests left on here


  https://forum.suprbay.org/showthread.php?tid=130110






                                ENCODED BY THE HAMBURGLER


Please Comment On Quality And Seed

Sharing Is Caring
